<?xml version="1.0" standalone="no"?>
<!DOCTYPE svg PUBLIC "-//W3C//DTD SVG 20010904//EN"
 "http://www.w3.org/TR/2001/REC-SVG-20010904/DTD/svg10.dtd">
<svg version="1.0" xmlns="http://www.w3.org/2000/svg"
 width="225.000000pt" height="225.000000pt" viewBox="0 0 221.000000 221.000000"
 preserveAspectRatio="xMidYMid meet">
<metadata>
Created by potrace 1.10, written by Peter Selinger 2001-2011
</metadata>
<g transform="translate(0.000000,221.000000) scale(0.100000,-0.100000)"
fill="#000000" stroke="black" stroke-width="100">
<path d="M756 1987 c-110 -67 -201 -127 -203 -134 -2 -6 5 -14 15 -17 11 -4
44 -20 75 -37 l55 -30 -90 -147 c-50 -81 -159 -258 -242 -395 -83 -136 -170
-278 -193 -315 -23 -37 -42 -70 -42 -74 -1 -3 22 -20 51 -36 l52 -30 94 156
c52 87 120 198 151 249 31 50 116 190 190 312 73 122 135 221 137 221 3 0 44
-21 91 -46 l85 -45 -6 143 c-3 79 -7 189 -9 245 -1 57 -4 103 -7 103 -3 0 -95
-55 -204 -123z m168 27 c6 -17 9 -314 2 -314 -2 0 -23 9 -47 20 -24 11 -53 20
-65 20 -20 0 -67 -41 -88 -79 -38 -69 -87 -150 -147 -244 -38 -59 -69 -110
-69 -112 0 -3 -20 -36 -45 -75 -25 -39 -45 -73 -45 -77 0 -4 -17 -32 -38 -63
-46 -68 -51 -77 -103 -170 -46 -81 -55 -91 -76 -83 -21 8 -10 40 45 124 27 41
86 137 132 214 45 77 118 196 160 265 104 167 190 313 190 322 0 13 -62 78
-70 73 -7 -5 -20 17 -20 34 0 4 19 18 43 31 23 13 71 42 107 64 98 61 104 65
116 65 7 1 15 -6 18 -15z"/>
<path d="M1417 1946 c-3 -8 -6 -108 -7 -223 0 -189 1 -209 17 -218 20 -11 627
-5 638 7 8 8 7 412 -1 433 -9 22 -639 22 -647 1z m615 -29 c13 -20 10 -375 -3
-383 -18 -11 -568 -9 -579 2 -15 15 -14 362 0 380 15 17 61 20 340 16 170 -2
236 -6 242 -15z"/>
<path d="M742 1251 c-10 -6 -13 -54 -11 -220 1 -116 6 -214 10 -217 12 -7
1311 -5 1318 2 3 3 7 98 9 210 3 149 0 209 -8 220 -11 12 -108 14 -659 14
-355 0 -652 -4 -659 -9z m1281 -30 c15 -12 17 -38 17 -192 0 -131 -3 -180 -12
-186 -7 -4 -291 -8 -631 -8 -570 0 -620 1 -628 17 -5 9 -9 96 -9 192 0 196 -7
178 70 189 14 2 284 3 601 3 472 -1 579 -3 592 -15z"/>
<path d="M179 553 c-20 -23 -25 -387 -7 -421 l13 -23 927 1 c510 0 934 3 943
6 13 5 15 36 15 211 0 122 -4 212 -10 224 -10 19 -31 19 -939 19 -851 0 -930
-1 -942 -17z m1853 -27 c4 -6 8 -93 8 -194 l0 -182 -26 -11 c-18 -6 -340 -9
-916 -8 l-889 1 -10 26 c-6 16 -9 95 -7 195 3 135 6 170 18 177 9 6 364 10
864 10 467 0 851 1 852 3 8 7 100 -7 106 -17z"/>
</g>
</svg>
